<?xml version="1.0" encoding="UTF-8"?>
<svg id="Capa_2" data-name="Capa 2" xmlns="http://www.w3.org/2000/svg" viewBox="0 0 136.72 118.5">
  <defs>
    <style>
      .cls-1 {
        fill: #28ad56;
      }

      .cls-1, .cls-2 {
        fill-rule: evenodd;
      }

      .cls-2 {
        fill: #18529d;
      }
    </style>
  </defs>
  <g id="Capa_2-2" data-name="Capa 2">
    <g>
      <g>
        <path class="cls-1" d="m70.42,97.42s15.89-36.62,16.11-37.13c.45-1.03,1.13-2.6,2.56-3.25-3.19,0-6.53-.07-9.72-.08-.79.02-1.86.04-2.81,2.14l-8.43,19.44-8.43-19.44c-.86-1.88-1.84-2.14-2.82-2.14-3.19,0-6.52.07-9.71.08,1.51.74,2.13,2.24,2.56,3.25.22.5,16.1,37.13,16.1,37.13.49,1,1.09,2.78,2.29,2.78,1.14.02,1.83-1.79,2.29-2.78Z"/>
        <path class="cls-2" d="m76.08,57.03c.64-1.14,3.08-10.04,11.18-10.04,7.29,0,10.99,5.74,10.99,10.65,0,3.41-1.65,6.58-4.32,8.56-2.11,1.53-2.97,1.29-2.85,1.9.15.78,2.94-.12,3.38-.25,7.47-2.24,12.77-9.4,12.77-17.31,0-10.78-8.94-18.07-18.03-18.07-5.79.01-12.12,2.71-15.91,9.38,4.82-10.99,5.52-27.62-5.16-41.85-10.67,14.2-9.96,30.88-5.17,41.85-3.8-6.65-9.96-9.38-15.87-9.38-9.21,0-18.06,7.19-18.06,18.07,0,7.91,5.31,15.07,12.77,17.31.44.13,3.2,1.03,3.38.25.14-.6-1.02-.52-2.85-1.9-2.67-1.98-4.32-5.15-4.32-8.56,0-5.37,4.34-10.66,10.65-10.66,8.45,0,10.84,8.84,11.52,10.05l7.95,18.32,7.95-18.32Z"/>
        <path class="cls-2" d="m71.59,97.92c-.48,1.1-1.18,2.68-2.26,3.25,1.97-.13,8.52-1.47,12.77-5.56,3.39-3.16,5.53-7.62,5.63-12.59l.94-23.5c-.57,0-.8.9-2.03,3.74l-15.05,34.67Z"/>
        <path class="cls-2" d="m49.63,63.25c-1.23-2.84-1.46-3.74-2.03-3.74l.94,23.5c.09,4.97,2.24,9.44,5.63,12.59,4.26,4.09,10.8,5.42,12.77,5.56-1.08-.57-1.78-2.14-2.26-3.25l-15.05-34.67Z"/>
      </g>
      <g>
        <path d="m7.19,115.11c0,2.05-1.23,3.39-3.71,3.39-1.77,0-3.48-.99-3.48-3.27v-5.2h1.2v4.94c0,.94.12,1.34.5,1.72.48.48,1.08.71,1.8.71.92,0,1.58-.29,1.96-.67.43-.43.53-1.04.53-1.83v-4.87h1.2v5.07Z"/>
        <path d="m10.47,113.27h.02c.42-.53,1.03-.83,1.64-.83,1.04,0,1.87.71,1.87,2.22v3.39h-1.09v-3.41c0-.81-.42-1.34-1.08-1.34-.48,0-.86.22-1.37.8v3.95h-1.09v-5.5h1.09v.72Z"/>
        <path d="m16.76,111.53c-.36,0-.65-.29-.65-.65s.29-.65.65-.65.65.29.65.65-.29.65-.65.65Zm.54,6.52h-1.09v-5.5h1.09v5.5Z"/>
        <path d="m18.81,112.55h1.19l1.48,3.38,1.45-3.38h1.16l-2.43,5.61h-.37l-2.49-5.61Z"/>
        <path d="m30.03,117.51c-.66.44-1.26.65-2.19.65-1.72,0-2.67-1.41-2.67-2.93,0-1.67,1.05-2.79,2.57-2.79s2.39.99,2.39,3.03h-3.87c.17,1.09.8,1.65,1.85,1.65.66,0,1.29-.25,1.92-.66v1.05Zm-.98-2.77c-.04-.83-.52-1.36-1.29-1.36-.83,0-1.34.49-1.48,1.36h2.77Z"/>
        <path d="m33.35,112.55v1.26h.03c.55-.97,1.08-1.37,1.59-1.37.44,0,.86.21,1.31.64l-.58.94c-.33-.32-.76-.54-1.02-.54-.75,0-1.34.75-1.34,1.69v2.88h-1.09v-5.5h1.09Z"/>
        <path d="m40.8,113.97c-.61-.4-1.19-.58-1.59-.58-.44,0-.72.21-.72.5,0,.25.37.54,1.33,1.1.91.6,1.24.98,1.24,1.55,0,.97-.77,1.62-1.81,1.62-.67,0-1.2-.13-1.91-.5v-1.18c.71.49,1.36.72,1.8.72.44-.02.81-.23.81-.62,0-.76-2.57-1.16-2.57-2.65,0-.93.71-1.5,1.81-1.5.51,0,1.04.15,1.62.45v1.08Z"/>
        <path d="m43.66,111.53c-.36,0-.65-.29-.65-.65s.29-.65.65-.65.65.29.65.65-.29.65-.65.65Zm.54,6.52h-1.09v-5.5h1.09v5.5Z"/>
        <path d="m51.04,118.05h-2.32c-1.64,0-2.67-1.11-2.67-2.88,0-1.6,1.14-2.73,2.75-2.73.37,0,.71.06,1.15.22v-2.96h1.09v8.36Zm-1.09-4.42c-.37-.15-.65-.21-1.02-.21-1.05,0-1.77.76-1.77,1.91,0,1.03.42,1.8,1.68,1.8h1.1v-3.5Z"/>
        <path d="m57.74,117.74c-.5.33-.71.43-1.05.43-.48,0-.74-.17-.83-.56-.48.38-.98.56-1.48.56-.81,0-1.35-.64-1.35-1.35,0-1.09.99-1.42,1.88-1.74l.97-.34v-.29c0-.69-.33-.97-.99-.97-.6,0-1.21.28-1.74.91v-1.19c.43-.5,1.03-.75,1.83-.75,1.11,0,2,.56,2,1.81v2.83c0,.21.07.28.21.28.11,0,.33-.11.58-.29v.66Zm-1.87-2.4c-.93.32-1.74.64-1.74,1.29,0,.45.33.77.79.77.34,0,.66-.17.96-.45v-1.61Z"/>
        <path d="m63.92,118.05h-2.32c-1.64,0-2.67-1.11-2.67-2.88,0-1.6,1.14-2.73,2.75-2.73.37,0,.71.06,1.15.22v-2.96h1.09v8.36Zm-1.09-4.42c-.37-.15-.65-.21-1.02-.21-1.05,0-1.77.76-1.77,1.91,0,1.03.42,1.8,1.68,1.8h1.1v-3.5Z"/>
        <path d="m72.89,118.24h-.25l-3.62-8.43h1.2l2.51,5.87,2.5-5.87h1.19l-3.54,8.43Z"/>
        <path d="m81.47,117.51c-.66.44-1.26.65-2.19.65-1.71,0-2.67-1.41-2.67-2.93,0-1.67,1.05-2.79,2.57-2.79s2.39.99,2.39,3.03h-3.87c.17,1.09.8,1.65,1.85,1.65.66,0,1.29-.25,1.92-.66v1.05Zm-.98-2.77c-.04-.83-.52-1.36-1.29-1.36-.83,0-1.34.49-1.48,1.36h2.77Z"/>
        <path d="m84.69,112.55v1.26h.02c.55-.97,1.08-1.37,1.59-1.37.44,0,.86.21,1.31.64l-.58.94c-.33-.32-.76-.54-1.02-.54-.75,0-1.34.75-1.34,1.69v2.88h-1.09v-5.5h1.09Z"/>
        <path d="m93.42,117.74c-.5.33-.71.43-1.05.43-.48,0-.74-.17-.83-.56-.48.38-.98.56-1.48.56-.81,0-1.35-.64-1.35-1.35,0-1.09.99-1.42,1.88-1.74l.97-.34v-.29c0-.69-.33-.97-.99-.97-.6,0-1.21.28-1.74.91v-1.19c.43-.5,1.03-.75,1.83-.75,1.12,0,2,.56,2,1.81v2.83c0,.21.07.28.21.28.11,0,.33-.11.58-.29v.66Zm-1.87-2.4c-.93.32-1.74.64-1.74,1.29,0,.45.33.77.79.77.34,0,.66-.17.96-.45v-1.61Z"/>
        <path d="m99.04,113.99c-.63-.42-1.04-.54-1.52-.54-.99,0-1.68.75-1.68,1.86s.74,1.83,1.87,1.83c.46,0,.91-.12,1.46-.37v1.08c-.37.17-1.07.32-1.64.32-1.64,0-2.79-1.14-2.79-2.76,0-1.81,1.05-2.97,2.72-2.97.64,0,1.07.15,1.59.38v1.16Z"/>
        <path d="m102.3,112.55v1.26h.02c.55-.97,1.08-1.37,1.59-1.37.44,0,.86.21,1.31.64l-.57.94c-.33-.32-.76-.54-1.02-.54-.75,0-1.33.75-1.33,1.69v2.88h-1.09v-5.5h1.09Z"/>
        <path d="m110.11,118.05v-.7c-.45.49-1.09.81-1.63.81-1.12,0-1.9-.8-1.9-2.19v-3.42h1.09v3.49c0,.77.38,1.21,1.13,1.21.49,0,.96-.27,1.31-.77v-3.93h1.09v5.5h-1.09Z"/>
        <path d="m114.79,117.07h2.94v.98h-4.83l2.92-4.52h-2.79v-.98h4.69l-2.93,4.52Z"/>
        <path d="m123.96,117.74c-.5.33-.71.43-1.05.43-.48,0-.74-.17-.83-.56-.48.38-.98.56-1.48.56-.81,0-1.35-.64-1.35-1.35,0-1.09.99-1.42,1.87-1.74l.97-.34v-.29c0-.69-.33-.97-.99-.97-.6,0-1.21.28-1.74.91v-1.19c.43-.5,1.03-.75,1.83-.75,1.12,0,2,.56,2,1.81v2.83c0,.21.07.28.21.28.11,0,.33-.11.58-.29v.66Zm-1.87-2.4c-.93.32-1.74.64-1.74,1.29,0,.45.33.77.79.77.34,0,.66-.17.96-.45v-1.61Z"/>
        <path d="m126.7,113.27h.03c.42-.53,1.03-.83,1.64-.83,1.04,0,1.88.71,1.88,2.22v3.39h-1.09v-3.41c0-.81-.42-1.34-1.08-1.34-.48,0-.86.22-1.37.8v3.95h-1.09v-5.5h1.09v.72Z"/>
        <path d="m136.72,117.74c-.5.33-.71.43-1.05.43-.48,0-.74-.17-.83-.56-.48.38-.98.56-1.48.56-.81,0-1.35-.64-1.35-1.35,0-1.09.99-1.42,1.88-1.74l.97-.34v-.29c0-.69-.33-.97-.99-.97-.6,0-1.21.28-1.74.91v-1.19c.43-.5,1.03-.75,1.83-.75,1.12,0,2,.56,2,1.81v2.83c0,.21.07.28.21.28.11,0,.33-.11.57-.29v.66Zm-1.87-2.4c-.93.32-1.74.64-1.74,1.29,0,.45.33.77.78.77.34,0,.66-.17.95-.45v-1.61Z"/>
      </g>
    </g>
  </g>
</svg>