<?xml version="1.0" encoding="UTF-8"?>
<svg id="Capa_2" data-name="Capa 2" xmlns="http://www.w3.org/2000/svg" viewBox="0 0 960.1 138.02">
  <g id="Capa_1-2" data-name="Capa 1">
    <g>
      <g>
        <polygon points="221.09 34.33 246.67 34.33 246.67 99.2 265.17 99.2 265.17 34.33 290.75 34.33 290.75 19.26 221.09 19.26 221.09 34.33"/>
        <path d="m316.22,45.83v-8.07h-17.02v61.44h17.82v-29.01c0-5.86,1.48-10.2,4.45-13.02,2.97-2.82,6.97-4.22,11.99-4.22.61,0,1.24.04,1.88.11.65.08,1.31.19,2,.34v-16.56c-5.79,0-10.7,1.12-14.73,3.37-2.59,1.44-4.72,3.32-6.39,5.62Z"/>
        <path d="m391.71,43.47c-5.18-4.41-12.45-6.62-21.81-6.62-4.87,0-9.67.63-14.39,1.88-4.72,1.26-8.76,3.1-12.11,5.54l6.28,12.45c2.28-1.75,5-3.14,8.17-4.17,3.16-1.03,6.38-1.54,9.65-1.54,4.8,0,8.35,1.07,10.68,3.2,2.32,2.13,3.48,5.1,3.48,8.91v.11h-14.05c-6.32,0-11.42.76-15.3,2.28-3.88,1.52-6.72,3.67-8.51,6.45-1.79,2.78-2.68,5.96-2.68,9.54s.93,6.66,2.8,9.48c1.86,2.82,4.51,5.04,7.94,6.68,3.43,1.64,7.5,2.46,12.22,2.46,5.4,0,9.82-1.04,13.25-3.14,2.32-1.42,4.14-3.24,5.48-5.44v7.67h16.67v-35.06c0-9.36-2.59-16.25-7.76-20.67Zm-15.13,42.59c-2.4,1.37-5.12,2.06-8.17,2.06s-5.46-.67-7.25-2c-1.79-1.33-2.68-3.14-2.68-5.42,0-2.06.78-3.77,2.34-5.14,1.56-1.37,4.43-2.06,8.62-2.06h12.22v6.28c-.99,2.82-2.68,4.91-5.08,6.28Z"/>
        <path d="m442.11,79.45l-17.29-41.69h-18.27l26.49,61.95-.22.52c-1.22,2.74-2.57,4.7-4.05,5.88-1.49,1.18-3.45,1.77-5.88,1.77-1.83,0-3.64-.34-5.42-1.03-1.79-.69-3.37-1.68-4.74-2.97l-6.51,12.79c2.05,1.75,4.64,3.12,7.76,4.11,3.12.99,6.24,1.48,9.36,1.48,3.73,0,7.14-.57,10.22-1.71,3.08-1.14,5.9-3.1,8.45-5.88,2.55-2.78,4.81-6.68,6.79-11.71l27.75-65.21h-17.02l-17.43,41.69Z"/>
        <path d="m527.77,40.73c-4.83-2.59-10.26-3.88-16.27-3.88s-11.86,1.35-16.84,4.05c-4.99,2.7-8.87,6.45-11.65,11.25-2.78,4.8-4.17,10.24-4.17,16.33s1.45,11.52,4.34,16.27c2.89,4.76,6.97,8.51,12.22,11.25,5.25,2.74,11.38,4.11,18.39,4.11,5.56,0,10.47-.86,14.73-2.57,4.26-1.71,7.8-4.17,10.62-7.37l-9.48-10.28c-2.06,1.98-4.32,3.46-6.79,4.45-2.47.99-5.31,1.48-8.51,1.48-3.73,0-6.93-.67-9.59-2-2.67-1.33-4.76-3.25-6.28-5.77-.84-1.38-1.44-2.91-1.81-4.57h46.46c.08-.76.15-1.58.23-2.46.08-.87.11-1.66.11-2.34,0-6.62-1.41-12.29-4.23-17.02-2.82-4.72-6.64-8.37-11.48-10.96Zm-24.21,11.59c2.32-1.33,5-2,8.05-2s5.71.67,7.99,2c2.28,1.33,4.07,3.18,5.37,5.54.86,1.57,1.41,3.32,1.66,5.25h-30.19c.3-1.91.86-3.65,1.69-5.2,1.29-2.4,3.1-4.26,5.42-5.6Z"/>
        <path d="m577.96,53.58c2.44-1.33,5.14-2,8.11-2,2.82,0,5.4.67,7.77,2,2.36,1.33,4.38,3.45,6.05,6.34l13.7-7.54c-2.13-4.95-5.62-8.77-10.45-11.48-4.83-2.7-10.49-4.05-16.96-4.05s-12.5,1.37-17.64,4.11c-5.14,2.74-9.17,6.47-12.1,11.19-2.93,4.72-4.4,10.16-4.4,16.33s1.46,11.53,4.4,16.33c2.93,4.8,6.97,8.55,12.1,11.25,5.14,2.7,11.02,4.05,17.64,4.05s12.12-1.37,16.96-4.11c4.83-2.74,8.32-6.55,10.45-11.42l-13.7-7.54c-1.67,2.97-3.69,5.12-6.05,6.45-2.36,1.33-4.95,2-7.77,2-2.97,0-5.67-.67-8.11-2-2.44-1.33-4.38-3.27-5.82-5.82-1.45-2.55-2.17-5.61-2.17-9.19s.72-6.62,2.17-9.14c1.45-2.51,3.39-4.43,5.82-5.77Z"/>
        <path d="m653.55,85.95c-2.28,0-4.09-.72-5.42-2.17-1.33-1.45-2-3.46-2-6.05v-24.89h15.19v-13.7h-15.19v-14.96h-17.93v14.96h-9.48v13.7h9.48v25.24c0,7.31,2.02,12.81,6.05,16.5,4.03,3.69,9.67,5.54,16.9,5.54,2.74,0,5.38-.32,7.94-.97,2.55-.65,4.7-1.62,6.45-2.91l-4.68-12.56c-1.98,1.52-4.42,2.28-7.31,2.28Z"/>
        <path d="m721.5,40.9c-5.1-2.7-10.93-4.05-17.47-4.05s-12.24,1.35-17.3,4.05c-5.06,2.7-9.04,6.43-11.93,11.19-2.89,4.76-4.34,10.22-4.34,16.39s1.45,11.52,4.34,16.27c2.89,4.76,6.87,8.51,11.93,11.25,5.06,2.74,10.83,4.11,17.3,4.11s12.37-1.37,17.47-4.11c5.1-2.74,9.1-6.47,11.99-11.19,2.89-4.72,4.34-10.16,4.34-16.33s-1.45-11.63-4.34-16.39c-2.89-4.76-6.89-8.49-11.99-11.19Zm-3.83,36.71c-1.41,2.59-3.27,4.55-5.6,5.88-2.32,1.33-5.01,2-8.05,2s-5.52-.67-7.88-2c-2.36-1.33-4.25-3.29-5.65-5.88-1.41-2.59-2.11-5.63-2.11-9.14s.7-6.62,2.11-9.14c1.41-2.51,3.29-4.43,5.65-5.77,2.36-1.33,5.02-2,7.99-2s5.61.67,7.94,2c2.32,1.33,4.19,3.25,5.6,5.77,1.41,2.51,2.11,5.56,2.11,9.14s-.71,6.55-2.11,9.14Z"/>
        <path d="m767.86,45.83v-8.07h-17.02v61.44h17.82v-29.01c0-5.86,1.48-10.2,4.45-13.02,2.97-2.82,6.97-4.22,11.99-4.22.61,0,1.24.04,1.88.11.65.08,1.31.19,2,.34v-16.56c-5.79,0-10.7,1.12-14.73,3.37-2.59,1.44-4.72,3.32-6.39,5.62Z"/>
        <rect x="801.46" y="56.93" width="33.51" height="14.5"/>
        <rect x="852.95" y="18.01" width="19.52" height="81.19"/>
        <path d="m930.1,18.01h-18.4l-29.78,81.19h20.91l4.68-15.17h26.82l4.74,15.17h21.02l-30-81.19Zm-17.9,50.91l8.7-28.16,8.75,28.16h-17.45Z"/>
      </g>
      <path d="m186.66,67.44l-12.54,8.6v31.28c3.71,1.77,6.28,5.56,6.28,9.95,0,2.58-.89,4.95-2.37,6.83l5.01,8.67-9.1,5.25-4.56-7.9-4.56,7.9-9.1-5.25,5.01-8.67c-1.48-1.88-2.37-4.25-2.37-6.83,0-4.39,2.57-8.18,6.28-9.95v-24.77s-12.35,8.47-12.35,8.47L42.97,32.52l92.59,69.91.06,35.6-20.86-21.34-31.06,21.34L0,0l186.66,67.44Z"/>
    </g>
  </g>
</svg>